<svg width="1280" height="375" viewBox="0 0 1280 375" fill="none" xmlns="http://www.w3.org/2000/svg">
<path d="M1178.07 0.00121875H101.989C98.0665 0.00121875 94.1909 0.00121875 90.2791 0.0199687C87.0044 0.0387186 83.7554 0.0931872 80.4494 0.139031C73.2665 0.21311 66.1008 0.766929 59.0143 1.79568C51.9376 2.84683 45.0827 4.82854 38.6813 7.67379C32.2877 10.5431 26.4457 14.2715 21.3673 18.7237C16.2621 23.1634 12.0065 28.295 8.7643 33.9214C5.51304 39.5365 3.25862 45.5536 2.07888 51.765C0.887936 57.9684 0.247074 64.2435 0.162054 70.5335C0.0627891 73.4079 0.0523064 76.2916 0 79.1666V295.862C0.0523064 298.773 0.0627891 301.593 0.162054 304.505C0.2471 310.795 0.887964 317.07 2.07888 323.273C3.25536 329.488 5.50991 335.508 8.7643 341.126C12.005 346.734 16.2612 351.844 21.3673 356.259C26.4265 360.731 32.2722 364.463 38.6813 367.31C45.0827 370.163 51.9369 372.156 59.0143 373.224C66.102 374.244 73.2672 374.798 80.4494 374.881C83.7554 374.945 87.0044 374.981 90.2791 374.981C94.1909 375 98.0665 375 101.989 375H1178.07C1181.92 375 1185.82 375 1189.66 374.981C1192.92 374.981 1196.27 374.945 1199.52 374.881C1206.69 374.803 1213.85 374.248 1220.92 373.224C1228.02 372.149 1234.89 370.156 1241.33 367.31C1247.73 364.461 1253.58 360.73 1258.63 356.259C1263.72 351.827 1267.99 346.72 1271.27 341.126C1274.5 335.504 1276.73 329.484 1277.89 323.273C1279.08 317.069 1279.74 310.795 1279.87 304.505C1279.91 301.593 1279.91 298.773 1279.91 295.862C1280 292.457 1280 289.069 1280 285.608V89.4022C1280 85.9691 1280 82.5635 1279.91 79.1666C1279.91 76.2916 1279.91 73.4079 1279.87 70.5335C1279.74 64.2423 1279.08 57.9689 1277.89 51.7646C1276.73 45.5569 1274.5 39.5402 1271.27 33.921C1264.66 22.6436 1254.19 13.4639 1241.33 7.67297C1234.89 4.83465 1228.02 2.85347 1220.92 1.79484C1213.85 0.761554 1206.69 0.207541 1199.52 0.137718C1196.27 0.0919685 1192.92 0.0370311 1189.66 0.0187499C1185.82 0 1181.92 0 1178.07 0V0.00121875Z" fill="#A6A6A6"/>
<path d="M89.9078 366.981C86.6522 366.981 83.4748 366.944 80.2447 366.88C73.5538 366.804 66.8779 366.292 60.2725 365.35C54.1134 364.418 48.1468 362.685 42.5697 360.208C37.0436 357.751 32.0035 354.53 27.6423 350.667C23.2178 346.85 19.5344 342.422 16.7377 337.561C13.9102 332.667 11.9535 327.422 10.9356 322.008C9.83631 316.19 9.24159 310.308 9.15649 304.411C9.08872 302.431 9 295.841 9 295.841V79.0393C9 79.0393 9.09448 72.5504 9.15699 70.644C9.23847 64.7564 9.82978 58.8829 10.9257 53.0742C11.9455 47.6451 13.9039 42.3847 16.7328 37.4752C19.5192 32.6166 23.1823 28.1861 27.58 24.3553C31.9727 20.488 37.029 17.25 42.5644 14.7592C48.1288 12.2899 54.0841 10.569 60.2308 9.65429C66.8578 8.70232 73.5567 8.18764 80.271 8.11456L89.9128 8H1188.03L1197.79 8.11919C1204.44 8.18864 1211.08 8.69869 1217.65 9.64509C1223.86 10.5713 1229.87 12.3041 1235.5 14.7868C1246.59 19.8064 1255.62 27.7478 1261.31 37.4981C1264.09 42.3737 1266.02 47.5912 1267.03 52.9734C1268.13 58.8297 1268.75 64.7495 1268.88 70.6853C1268.91 73.3431 1268.91 76.1981 1268.91 79.0393C1269 82.5587 1269 85.9086 1269 89.286V285.704C1269 289.113 1269 292.441 1268.91 295.795C1268.91 298.847 1268.91 301.643 1268.87 304.52C1268.74 310.35 1268.13 316.164 1267.05 321.916C1266.04 327.369 1264.1 332.655 1261.27 337.589C1258.46 342.398 1254.79 346.787 1250.42 350.594C1246.06 354.477 1241.01 357.717 1235.47 360.19C1229.86 362.687 1223.85 364.426 1217.65 365.35C1211.04 366.297 1204.36 366.809 1197.67 366.88C1194.55 366.944 1191.26 366.981 1188.08 366.981L1176.5 367L89.9078 366.981Z" fill="black"/>
<path d="M311.115 190.316C311.215 182.491 313.3 174.818 317.173 168.012C321.047 161.207 326.584 155.489 333.269 151.39C329.022 145.342 323.42 140.364 316.906 136.852C310.393 133.341 303.148 131.392 295.747 131.162C279.96 129.509 264.655 140.582 256.61 140.582C248.41 140.582 236.023 131.326 222.685 131.599C214.058 131.877 205.65 134.379 198.281 138.861C190.911 143.342 184.831 149.652 180.634 157.173C162.452 188.565 176.014 234.699 193.431 260.074C202.145 272.499 212.33 286.378 225.655 285.886C238.696 285.347 243.566 277.594 259.306 277.594C274.901 277.594 279.47 285.886 293.066 285.573C307.06 285.347 315.875 273.093 324.284 260.55C330.545 251.697 335.363 241.912 338.559 231.557C330.43 228.129 323.492 222.39 318.611 215.056C313.731 207.722 311.124 199.117 311.115 190.316Z" fill="white"/>
<path d="M285.433 114.475C293.063 105.342 296.821 93.6024 295.911 81.7505C284.255 82.9711 273.488 88.5261 265.756 97.3092C261.975 101.6 259.08 106.591 257.235 111.999C255.39 117.406 254.631 123.122 255.004 128.822C260.834 128.882 266.601 127.622 271.873 125.137C277.143 122.652 281.78 119.006 285.433 114.475Z" fill="white"/>
<path d="M475.952 254.44H431.452L420.765 285.907H401.917L444.067 169.489H463.649L505.799 285.907H486.629L475.952 254.44ZM436.06 239.92H471.334L453.945 188.852H453.459L436.06 239.92Z" fill="white"/>
<path d="M596.829 243.47C596.829 269.846 582.672 286.793 561.308 286.793C555.896 287.075 550.514 285.832 545.777 283.206C541.041 280.579 537.142 276.676 534.527 271.943H534.123V313.984H516.652V201.026H533.563V215.143H533.884C536.62 210.433 540.585 206.55 545.357 203.908C550.129 201.265 555.531 199.963 560.987 200.138C582.589 200.138 596.829 217.167 596.829 243.47ZM578.871 243.47C578.871 226.286 569.966 214.988 556.378 214.988C543.029 214.988 534.05 226.523 534.05 243.47C534.05 260.572 543.029 272.025 556.378 272.025C569.966 272.025 578.871 260.81 578.871 243.47Z" fill="white"/>
<path d="M690.511 243.47C690.511 269.846 676.354 286.793 654.99 286.793C649.578 287.075 644.196 285.831 639.459 283.205C634.723 280.579 630.824 276.676 628.209 271.943H627.805V313.983H610.333V201.026H627.245V215.143H627.566C630.301 210.433 634.266 206.55 639.038 203.908C643.811 201.265 649.212 199.963 654.668 200.138C676.271 200.138 690.511 217.166 690.511 243.47ZM672.553 243.47C672.553 226.285 663.647 214.988 650.06 214.988C636.71 214.988 627.731 226.523 627.731 243.47C627.731 260.572 636.71 272.025 650.06 272.025C663.647 272.025 672.553 260.81 672.553 243.47Z" fill="white"/>
<path d="M752.43 253.465C753.724 265.01 764.968 272.59 780.336 272.59C795.068 272.59 805.661 265.009 805.661 254.6C805.661 245.563 799.268 240.152 784.136 236.445L769.012 232.81C747.574 227.646 737.618 217.648 737.618 201.425C737.618 181.339 755.174 167.542 780.099 167.542C804.768 167.542 821.68 181.339 822.249 201.425H804.611C803.555 189.807 793.924 182.795 779.849 182.795C765.78 182.795 756.149 189.89 756.149 200.217C756.149 208.448 762.299 213.291 777.343 216.998L790.205 220.148C814.161 225.796 824.111 235.392 824.111 252.42C824.111 274.2 806.718 287.842 779.043 287.842C753.155 287.842 735.674 274.521 734.543 253.463L752.43 253.465Z" fill="white"/>
<path d="M861.817 180.939V201.026H878.005V214.822H861.817V261.615C861.817 268.884 865.061 272.272 872.174 272.272C874.099 272.238 876.017 272.104 877.924 271.869V285.583C874.724 286.179 871.474 286.449 868.217 286.389C850.986 286.389 844.267 279.934 844.267 263.473V214.822H831.892V201.026H844.267V180.939H861.817Z" fill="white"/>
<path d="M887.379 243.469C887.379 216.763 903.154 199.982 927.748 199.982C952.423 199.982 968.123 216.763 968.123 243.469C968.123 270.248 952.511 286.957 927.748 286.957C902.998 286.957 887.379 270.248 887.379 243.469ZM950.323 243.469C950.323 225.149 941.904 214.337 927.748 214.337C913.592 214.337 905.179 225.232 905.179 243.469C905.179 261.862 913.592 272.592 927.748 272.592C941.904 272.592 950.323 261.862 950.323 243.469Z" fill="white"/>
<path d="M982.53 201.025H999.193V215.472H999.599C1000.72 210.96 1003.37 206.972 1007.11 204.179C1010.84 201.387 1015.41 199.959 1020.07 200.137C1022.09 200.13 1024.09 200.348 1026.06 200.787V217.083C1023.52 216.309 1020.87 215.953 1018.21 216.031C1015.67 215.927 1013.14 216.374 1010.79 217.339C1008.44 218.303 1006.33 219.763 1004.6 221.618C1002.87 223.474 1001.56 225.68 1000.77 228.086C999.974 230.492 999.718 233.042 1000.01 235.559V285.904H982.53V201.025Z" fill="white"/>
<path d="M1106.61 260.974C1104.26 276.382 1089.21 286.957 1069.96 286.957C1045.2 286.957 1029.83 270.413 1029.83 243.872C1029.83 217.249 1045.28 199.982 1069.22 199.982C1092.77 199.982 1107.59 216.113 1107.59 241.849V247.818H1047.47V248.87C1047.19 251.994 1047.58 255.141 1048.62 258.102C1049.65 261.064 1051.31 263.77 1053.47 266.044C1055.64 268.319 1058.27 270.107 1061.18 271.291C1064.09 272.475 1067.22 273.028 1070.37 272.912C1074.49 273.298 1078.64 272.345 1082.18 270.194C1085.72 268.042 1088.47 264.809 1090.02 260.974L1106.61 260.974ZM1047.55 235.641H1090.1C1090.26 232.832 1089.84 230.022 1088.85 227.385C1087.87 224.749 1086.35 222.344 1084.39 220.321C1082.42 218.299 1080.07 216.702 1077.45 215.631C1074.85 214.56 1072.05 214.039 1069.22 214.099C1066.38 214.082 1063.56 214.627 1060.93 215.703C1058.3 216.779 1055.9 218.364 1053.89 220.366C1051.87 222.369 1050.27 224.75 1049.19 227.372C1048.1 229.994 1047.54 232.804 1047.55 235.641Z" fill="white"/>
<path d="M433.87 81.8505C437.533 81.5886 441.208 82.1399 444.631 83.4661C448.055 84.7918 451.14 86.8593 453.665 89.518C456.19 92.1768 458.092 95.3618 459.233 98.8424C460.375 102.323 460.727 106.013 460.265 109.646C460.265 127.517 450.58 137.79 433.87 137.79H413.608V81.8505H433.87ZM422.32 129.879H432.897C435.514 130.035 438.133 129.607 440.564 128.626C442.995 127.645 445.175 126.136 446.948 124.209C448.72 122.282 450.038 119.985 450.808 117.486C451.578 114.986 451.779 112.347 451.396 109.76C451.751 107.183 451.53 104.561 450.748 102.079C449.966 99.598 448.645 97.3199 446.876 95.408C445.108 93.4961 442.938 91.998 440.521 91.0205C438.105 90.0436 435.501 89.6118 432.897 89.7555H422.32V129.879Z" fill="white"/>
<path d="M470.108 116.667C469.842 113.893 470.16 111.093 471.042 108.449C471.925 105.804 473.351 103.373 475.231 101.311C477.11 99.2488 479.402 97.6007 481.958 96.4732C484.514 95.3457 487.277 94.7632 490.072 94.7632C492.867 94.7632 495.63 95.3457 498.186 96.4732C500.742 97.6007 503.034 99.2488 504.913 101.311C506.793 103.373 508.22 105.804 509.102 108.449C509.984 111.093 510.302 113.893 510.036 116.667C510.307 119.444 509.993 122.247 509.113 124.896C508.233 127.544 506.807 129.98 504.927 132.046C503.047 134.113 500.754 135.764 498.195 136.894C495.637 138.024 492.87 138.608 490.072 138.608C487.274 138.608 484.507 138.024 481.949 136.894C479.39 135.764 477.097 134.113 475.217 132.046C473.337 129.98 471.911 127.544 471.031 124.896C470.151 122.247 469.837 119.444 470.108 116.667ZM501.442 116.667C501.442 107.516 497.32 102.165 490.086 102.165C482.824 102.165 478.739 107.516 478.739 116.667C478.739 125.891 482.824 131.201 490.086 131.201C497.32 131.201 501.443 125.854 501.443 116.667H501.442Z" fill="white"/>
<path d="M563.111 137.79H554.444L545.695 106.699H545.034L536.321 137.79H527.737L516.067 95.575H524.542L532.126 127.787H532.75L541.453 95.575H549.468L558.172 127.787H558.833L566.379 95.575H574.734L563.111 137.79Z" fill="white"/>
<path d="M584.549 95.577H592.591V102.283H593.216C594.275 99.8745 596.061 97.8558 598.326 96.507C600.59 95.1589 603.22 94.5489 605.849 94.762C607.908 94.6077 609.977 94.9177 611.9 95.6683C613.824 96.4195 615.553 97.592 616.96 99.1002C618.368 100.608 619.416 102.412 620.03 104.38C620.643 106.346 620.804 108.426 620.501 110.463V137.791H612.147V112.556C612.147 105.771 609.191 102.398 603.012 102.398C601.613 102.333 600.217 102.57 598.92 103.093C597.621 103.617 596.452 104.414 595.492 105.43C594.532 106.446 593.804 107.658 593.357 108.98C592.91 110.303 592.755 111.708 592.903 113.096V137.792H584.549V95.577Z" fill="white"/>
<path d="M633.813 79.0955H642.168V137.79H633.813V79.0955Z" fill="white"/>
<path d="M653.782 116.661C653.516 113.887 653.835 111.088 654.717 108.443C655.6 105.799 657.026 103.368 658.906 101.305C660.786 99.2427 663.078 97.5952 665.634 96.4671C668.19 95.3396 670.954 94.7571 673.748 94.7571C676.543 94.7571 679.308 95.3396 681.863 96.4671C684.42 97.5952 686.711 99.2427 688.591 101.305C690.471 103.368 691.898 105.799 692.78 108.443C693.662 111.088 693.981 113.887 693.715 116.661C693.986 119.439 693.671 122.242 692.791 124.89C691.911 127.539 690.485 129.975 688.604 132.041C686.724 134.108 684.431 135.759 681.872 136.889C679.314 138.018 676.547 138.602 673.748 138.602C670.95 138.602 668.183 138.018 665.625 136.889C663.067 135.759 660.773 134.108 658.893 132.041C657.013 129.975 655.587 127.539 654.707 124.89C653.826 122.242 653.511 119.439 653.782 116.661ZM685.117 116.661C685.117 107.511 680.995 102.16 673.76 102.16C666.498 102.16 662.413 107.511 662.413 116.661C662.413 125.886 666.498 131.196 673.76 131.196C680.995 131.196 685.117 125.849 685.117 116.661Z" fill="white"/>
<path d="M702.51 125.854C702.51 118.256 708.186 113.875 718.254 113.252L729.723 112.593V108.949C729.723 104.491 726.767 101.973 721.054 101.973C716.392 101.973 713.161 103.681 712.229 106.665H704.142C704.998 99.4138 711.836 94.7632 721.442 94.7632C732.054 94.7632 738.042 100.032 738.042 108.949V137.793H729.998V131.861H729.336C727.992 133.988 726.111 135.723 723.879 136.888C721.642 138.052 719.142 138.604 716.623 138.489C714.842 138.673 713.048 138.484 711.348 137.933C709.648 137.383 708.086 136.484 706.754 135.294C705.423 134.103 704.361 132.648 703.629 131.023C702.898 129.397 702.517 127.636 702.51 125.854ZM729.723 122.248V118.718L719.386 119.377C713.554 119.766 710.911 121.744 710.911 125.465C710.911 129.264 714.217 131.476 718.761 131.476C720.092 131.61 721.436 131.476 722.717 131.081C723.992 130.687 725.179 130.04 726.204 129.179C727.223 128.318 728.067 127.261 728.667 126.069C729.273 124.879 729.629 123.579 729.723 122.248Z" fill="white"/>
<path d="M749.023 116.664C749.023 103.325 755.898 94.8748 766.592 94.8748C769.242 94.753 771.867 95.3848 774.167 96.6961C776.461 98.008 778.342 99.9448 779.573 102.281H780.198V79.0955H788.555V137.79H780.548V131.12H779.886C778.555 133.44 776.617 135.353 774.273 136.651C771.93 137.95 769.273 138.584 766.592 138.485C755.823 138.486 749.023 130.035 749.023 116.664ZM757.655 116.664C757.655 125.618 761.886 131.006 768.961 131.006C776.005 131.006 780.355 125.54 780.355 116.7C780.355 107.902 775.961 102.359 768.961 102.359C761.93 102.359 757.655 107.784 757.655 116.664Z" fill="white"/>
<path d="M823.117 116.667C822.855 113.893 823.174 111.093 824.055 108.449C824.936 105.804 826.361 103.373 828.242 101.311C830.124 99.2488 832.411 97.6007 834.967 96.4732C837.524 95.3457 840.292 94.7632 843.086 94.7632C845.88 94.7632 848.642 95.3457 851.199 96.4732C853.755 97.6007 856.042 99.2488 857.924 101.311C859.805 103.373 861.23 105.804 862.111 108.449C862.999 111.093 863.317 113.893 863.049 116.667C863.317 119.444 863.005 122.247 862.124 124.896C861.242 127.544 859.817 129.98 857.936 132.046C856.061 134.113 853.767 135.764 851.205 136.894C848.649 138.024 845.88 138.608 843.086 138.608C840.286 138.608 837.517 138.024 834.961 136.894C832.405 135.764 830.111 134.113 828.23 132.046C826.349 129.98 824.924 127.544 824.042 124.896C823.161 122.247 822.849 119.444 823.117 116.667ZM854.455 116.667C854.455 107.516 850.33 102.165 843.099 102.165C835.836 102.165 831.749 107.516 831.749 116.667C831.749 125.891 835.836 131.201 843.099 131.201C850.33 131.201 854.455 125.854 854.455 116.667Z" fill="white"/>
<path d="M874.261 95.577H882.299V102.283H882.924C883.986 99.8745 885.774 97.8558 888.036 96.507C890.299 95.1589 892.93 94.5489 895.561 94.762C897.618 94.6077 899.686 94.9177 901.611 95.6683C903.536 96.4195 905.261 97.592 906.668 99.1002C908.08 100.608 909.124 102.412 909.743 104.38C910.355 106.346 910.511 108.426 910.211 110.463V137.791H901.855V112.556C901.855 105.771 898.899 102.398 892.724 102.398C891.324 102.333 889.93 102.57 888.63 103.093C887.33 103.617 886.161 104.414 885.205 105.43C884.243 106.446 883.511 107.658 883.068 108.98C882.618 110.303 882.468 111.708 882.611 113.096V137.792H874.261V95.577Z" fill="white"/>
<path d="M957.417 85.0647V95.7672H966.592V102.785H957.417V124.492C957.417 128.913 959.248 130.85 963.404 130.85C964.473 130.847 965.535 130.782 966.592 130.658V137.597C965.092 137.865 963.573 138.007 962.048 138.023C952.754 138.023 949.054 134.763 949.054 126.625V102.784H942.336V95.7666H949.054V85.0647H957.417Z" fill="white"/>
<path d="M978.004 79.0955H986.286V102.359H986.948C988.054 99.928 989.892 97.8973 992.204 96.5442C994.511 95.1905 997.186 94.5805 999.854 94.7967C1001.9 94.6855 1003.95 95.0267 1005.85 95.7955C1007.75 96.5648 1009.46 97.743 1010.85 99.2461C1012.25 100.749 1013.29 102.54 1013.91 104.492C1014.53 106.443 1014.7 108.506 1014.44 110.535V137.79H1006.07V112.59C1006.07 105.847 1002.92 102.432 997.017 102.432C995.579 102.315 994.136 102.512 992.786 103.009C991.436 103.506 990.211 104.292 989.192 105.312C988.179 106.331 987.398 107.559 986.911 108.91C986.417 110.262 986.229 111.704 986.361 113.134V137.79H978.004V79.0955Z" fill="white"/>
<path d="M1063.15 126.39C1062.01 130.248 1059.56 133.585 1056.2 135.818C1052.85 138.05 1048.81 139.036 1044.81 138.603C1042.02 138.676 1039.24 138.143 1036.68 137.042C1034.12 135.94 1031.83 134.295 1029.97 132.222C1028.11 130.149 1026.72 127.697 1025.91 125.036C1025.09 122.375 1024.87 119.569 1025.25 116.813C1024.88 114.048 1025.11 111.237 1025.92 108.568C1026.73 105.899 1028.11 103.436 1029.96 101.345C1031.81 99.2528 1034.09 97.5828 1036.65 96.4465C1039.2 95.3103 1041.97 94.734 1044.77 94.7578C1056.55 94.7578 1063.66 102.783 1063.66 116.039V118.947H1033.76V119.413C1033.63 120.962 1033.82 122.522 1034.34 123.992C1034.84 125.461 1035.66 126.808 1036.72 127.947C1037.77 129.085 1039.07 129.99 1040.5 130.603C1041.93 131.217 1043.47 131.524 1045.04 131.507C1047.03 131.747 1049.06 131.387 1050.85 130.476C1052.64 129.565 1054.12 128.142 1055.11 126.389L1063.15 126.39ZM1033.76 112.785H1055.14C1055.25 111.368 1055.06 109.945 1054.57 108.607C1054.1 107.269 1053.34 106.046 1052.36 105.016C1051.38 103.986 1050.19 103.172 1048.88 102.627C1047.56 102.081 1046.15 101.817 1044.72 101.849C1043.28 101.831 1041.84 102.102 1040.51 102.645C1039.17 103.188 1037.95 103.993 1036.93 105.012C1035.91 106.031 1035.1 107.244 1034.56 108.579C1034.01 109.914 1033.74 111.344 1033.76 112.785Z" fill="white"/>
</svg>
