<?xml version="1.0" encoding="UTF-8" standalone="no"?>
<svg
   xmlns:dc="http://purl.org/dc/elements/1.1/"
   xmlns:cc="http://creativecommons.org/ns#"
   xmlns:rdf="http://www.w3.org/1999/02/22-rdf-syntax-ns#"
   xmlns:svg="http://www.w3.org/2000/svg"
   xmlns="http://www.w3.org/2000/svg"
   xmlns:sodipodi="http://sodipodi.sourceforge.net/DTD/sodipodi-0.dtd"
   xmlns:inkscape="http://www.inkscape.org/namespaces/inkscape"
   width="50"
   height="50"
   viewBox="0 0 13.229166 13.229167"
   version="1.1"
   id="svg8"
   inkscape:version="1.0.1 (3bc2e813f5, 2020-09-07)"
   sodipodi:docname="heart.svg">
  <defs
     id="defs2" />
  <sodipodi:namedview
     id="base"
     pagecolor="#ffffff"
     bordercolor="#666666"
     borderopacity="1.0"
     inkscape:pageopacity="0.0"
     inkscape:pageshadow="2"
     inkscape:zoom="7.9195959"
     inkscape:cx="3.9744511"
     inkscape:cy="30.375883"
     inkscape:document-units="mm"
     inkscape:current-layer="layer1"
     inkscape:document-rotation="0"
     showgrid="false"
     units="px"
     inkscape:window-width="1500"
     inkscape:window-height="1041"
     inkscape:window-x="361"
     inkscape:window-y="15"
     inkscape:window-maximized="0" />
  <metadata
     id="metadata5">
    <rdf:RDF>
      <cc:Work
         rdf:about="">
        <dc:format>image/svg+xml</dc:format>
        <dc:type
           rdf:resource="http://purl.org/dc/dcmitype/StillImage" />
        <dc:title></dc:title>
      </cc:Work>
    </rdf:RDF>
  </metadata>
  <g
     inkscape:label="Слой 1"
     inkscape:groupmode="layer"
     id="layer1">
    <g
       style="fill:none"
       id="g21"
       transform="scale(0.26458333)">
      <rect
         width="50"
         height="50"
         rx="10"
         fill="#8cc6ff"
         id="rect10"
         x="0"
         y="0" />
    </g>
    <g
       style="fill:none"
       id="g60"
       transform="matrix(0.26458333,0,0,0.26458333,3.4065122,3.1753375)">
      <path
         d="m 2,0.5 h 20 c 0.3315,0 0.6495,0.131696 0.8839,0.366116 C 23.1183,1.10054 23.25,1.41848 23.25,1.75 v 22.5 c 0,0.3315 -0.1317,0.6495 -0.3661,0.8839 C 22.6495,25.3683 22.3315,25.5 22,25.5 H 2 C 1.66848,25.5 1.35054,25.3683 1.11612,25.1339 0.881696,24.8995 0.75,24.5815 0.75,24.25 V 1.75 C 0.75,1.41848 0.881696,1.10054 1.11612,0.866116 1.35054,0.631696 1.66848,0.5 2,0.5 Z M 5.75,13 v 2.5 h 2.5 V 13 Z m 0,5 v 2.5 h 2.5 V 18 Z m 5,-5 v 2.5 h 2.5 V 13 Z m 0,5 v 2.5 h 2.5 V 18 Z m 5,-5 v 7.5 h 2.5 V 13 Z m -10,-7.5 v 5 h 12.5 v -5 z"
         fill="#ffffff"
         id="path49" />
    </g>
  </g>
</svg>
