<svg width="42" height="41" viewBox="0 0 42 41" fill="none" xmlns="http://www.w3.org/2000/svg">
<path d="M9.44775 33.5833L0.166504 40.875V2.33333C0.166504 1.7808 0.385997 1.25089 0.776698 0.860194C1.1674 0.469493 1.6973 0.25 2.24984 0.25H39.7498C40.3024 0.25 40.8323 0.469493 41.223 0.860194C41.6137 1.25089 41.8332 1.7808 41.8332 2.33333V31.5C41.8332 32.0525 41.6137 32.5824 41.223 32.9731C40.8323 33.3638 40.3024 33.5833 39.7498 33.5833H9.44775ZM21.0373 24.625L28.0353 17.6271C28.4705 17.1918 28.8158 16.6751 29.0514 16.1063C29.287 15.5376 29.4082 14.9281 29.4082 14.3125C29.4082 13.6969 29.287 13.0874 29.0514 12.5187C28.8158 11.9499 28.4705 11.4332 28.0353 10.9979C27.6 10.5626 27.0832 10.2174 26.5145 9.98179C25.9458 9.74622 25.3362 9.62497 24.7207 9.62497C24.1051 9.62497 23.4956 9.74622 22.9268 9.98179C22.3581 10.2174 21.8414 10.5626 21.4061 10.9979L21.0373 11.3667L20.6686 10.9979C20.2333 10.5626 19.7166 10.2174 19.1478 9.98179C18.5791 9.74622 17.9696 9.62497 17.354 9.62497C16.7384 9.62497 16.1289 9.74622 15.5602 9.98179C14.9914 10.2174 14.4747 10.5626 14.0394 10.9979C13.1603 11.877 12.6665 13.0693 12.6665 14.3125C12.6665 15.5557 13.1603 16.748 14.0394 17.6271L21.0373 24.625Z" fill="#FE4E4E"/>
</svg>
