<?xml version="1.0" encoding="UTF-8" standalone="no"?>
<svg
   xmlns:dc="http://purl.org/dc/elements/1.1/"
   xmlns:cc="http://creativecommons.org/ns#"
   xmlns:rdf="http://www.w3.org/1999/02/22-rdf-syntax-ns#"
   xmlns:svg="http://www.w3.org/2000/svg"
   xmlns="http://www.w3.org/2000/svg"
   xmlns:sodipodi="http://sodipodi.sourceforge.net/DTD/sodipodi-0.dtd"
   xmlns:inkscape="http://www.inkscape.org/namespaces/inkscape"
   width="80"
   height="80"
   viewBox="0 0 21.166666 21.166667"
   version="1.1"
   id="svg8"
   inkscape:version="1.0.1 (3bc2e813f5, 2020-09-07)"
   sodipodi:docname="circle.svg">
  <defs
     id="defs2" />
  <sodipodi:namedview
     id="base"
     pagecolor="#ffffff"
     bordercolor="#666666"
     borderopacity="1.0"
     inkscape:pageopacity="0.0"
     inkscape:pageshadow="2"
     inkscape:zoom="7.9195959"
     inkscape:cx="20.577793"
     inkscape:cy="47.937259"
     inkscape:document-units="mm"
     inkscape:current-layer="layer1"
     inkscape:document-rotation="0"
     showgrid="false"
     units="px"
     inkscape:window-width="1500"
     inkscape:window-height="1041"
     inkscape:window-x="361"
     inkscape:window-y="15"
     inkscape:window-maximized="0" />
  <metadata
     id="metadata5">
    <rdf:RDF>
      <cc:Work
         rdf:about="">
        <dc:format>image/svg+xml</dc:format>
        <dc:type
           rdf:resource="http://purl.org/dc/dcmitype/StillImage" />
        <dc:title></dc:title>
      </cc:Work>
    </rdf:RDF>
  </metadata>
  <g
     inkscape:label="Слой 1"
     inkscape:groupmode="layer"
     id="layer1">
    <g
       style="fill:none"
       id="g60"
       transform="matrix(0.25456072,0,0,0.24796069,10.01338,7.2782099)">
      <path
         d="m 2,0.5 h 20 c 0.3315,0 0.6495,0.131696 0.8839,0.366116 C 23.1183,1.10054 23.25,1.41848 23.25,1.75 v 22.5 c 0,0.3315 -0.1317,0.6495 -0.3661,0.8839 C 22.6495,25.3683 22.3315,25.5 22,25.5 H 2 C 1.66848,25.5 1.35054,25.3683 1.11612,25.1339 0.881696,24.8995 0.75,24.5815 0.75,24.25 V 1.75 C 0.75,1.41848 0.881696,1.10054 1.11612,0.866116 1.35054,0.631696 1.66848,0.5 2,0.5 Z M 5.75,13 v 2.5 h 2.5 V 13 Z m 0,5 v 2.5 h 2.5 V 18 Z m 5,-5 v 2.5 h 2.5 V 13 Z m 0,5 v 2.5 h 2.5 V 18 Z m 5,-5 v 7.5 h 2.5 V 13 Z m -10,-7.5 v 5 h 12.5 v -5 z"
         fill="#ffffff"
         id="path49" />
    </g>
    <g
       style="fill:none"
       id="g73"
       transform="matrix(0.25456072,0,0,0.24796069,0.47494352,0.2388638)">
      <circle
         cx="40"
         cy="40"
         r="40"
         fill="#eff7ff"
         id="circle62" />
    </g>
    <g
       style="fill:none"
       id="g89"
       transform="matrix(0.23671195,0,0,0.23731384,10.808892,0.68039292)">
      <path
         d="M -3.49691e-6,80 C 5.25287,80 10.4543,78.9654 15.3073,76.9552 20.1604,74.945 24.5699,71.9986 28.2843,68.2843 31.9986,64.5699 34.945,60.1604 36.9552,55.3073 38.9654,50.4543 40,45.2529 40,40 40,34.7471 38.9654,29.5457 36.9552,24.6927 34.945,19.8396 31.9986,15.4301 28.2843,11.7157 24.5699,8.00138 20.1604,5.055 15.3073,3.04482 10.4543,1.03463 5.25287,-1.97807e-6 -3.8147e-6,-1.74846e-6 L -3.98954e-6,4 C 4.72758,4 9.40888,4.93117 13.7766,6.74033 c 4.3677,1.80917 8.3363,4.46087 11.6792,7.80387 3.343,3.3429 5.9947,7.3115 7.8039,11.6792 C 35.0688,30.5911 36,35.2724 36,40 c 0,4.7276 -0.9312,9.4089 -2.7403,13.7766 -1.8092,4.3677 -4.4609,8.3363 -7.8039,11.6792 -3.3429,3.343 -7.3115,5.9947 -11.6792,7.8039 C 9.40888,75.0688 4.72759,76 -3.32207e-6,76 Z"
         stroke="#3696fe"
         stroke-width="4"
         mask="url(#path-1-inside-1)"
         id="path78" />
    </g>
    <g
       style="fill:none"
       id="g102"
       transform="matrix(0.25456072,0,0,0.24796069,5.7362498,8.126)">
      <path
         d="M 5.59375,15.2832 C 4.14193,15.2832 2.9375,14.8893 1.98047,14.1016 1.02344,13.3073 0.51888,12.2852 0.466797,11.0352 H 2.83008 c 0.07812,0.651 0.37435,1.1816 0.88867,1.5918 0.52083,0.4101 1.15234,0.6152 1.89453,0.6152 0.83985,0 1.52018,-0.2637 2.04102,-0.791 0.52734,-0.5274 0.79101,-1.2077 0.79101,-2.041 C 8.44531,9.5638 8.18164,8.8737 7.6543,8.33984 7.13346,7.79948 6.45964,7.5293 5.63281,7.5293 5.0599,7.5293 4.53581,7.65299 4.06055,7.90039 3.5918,8.14779 3.22721,8.49284 2.9668,8.93555 H 0.681641 L 1.41406,0.908203 H 10.0469 V 2.96875 H 3.40625 L 3.04492,7.08984 h 0.0586 C 3.39648,6.63411 3.81966,6.27604 4.37305,6.01562 4.92643,5.7487 5.54818,5.61523 6.23828,5.61523 c 1.34766,0 2.45768,0.44597 3.33008,1.33789 0.87244,0.88542 1.30864,2.01498 1.30864,3.38868 0,1.4648 -0.4916,2.6562 -1.47466,3.5742 -0.97656,0.9115 -2.24609,1.3672 -3.80859,1.3672 z m 12.30465,0 c -1.7187,0 -3.0696,-0.6543 -4.0527,-1.9629 -0.9766,-1.3151 -1.4648,-3.1087 -1.4648,-5.38085 0,-2.25911 0.4915,-4.04297 1.4746,-5.35156 0.983,-1.30859 2.3307,-1.96289 4.0429,-1.96289 1.7123,0 3.0567,0.6543 4.0332,1.96289 0.9766,1.30208 1.4649,3.08268 1.4649,5.3418 0,2.26561 -0.4883,4.05921 -1.4649,5.38081 -0.9765,1.3152 -2.3209,1.9727 -4.0332,1.9727 z m 0,-2.0605 c 0.931,0 1.6537,-0.4655 2.168,-1.3965 0.5208,-0.931 0.7813,-2.22659 0.7813,-3.88675 0,-1.64713 -0.2605,-2.93294 -0.7813,-3.85742 -0.5208,-0.93099 -1.2435,-1.39648 -2.168,-1.39648 -0.9244,0 -1.6536,0.46549 -2.1875,1.39648 -0.5273,0.93099 -0.791,2.21354 -0.791,3.84766 0,1.66015 0.2604,2.95901 0.7813,3.89651 0.5273,0.931 1.2597,1.3965 2.1972,1.3965 z M 39.207,11.582 c 0,1.1003 -0.2832,1.9759 -0.8496,2.627 -0.5599,0.651 -1.3151,0.9765 -2.2656,0.9765 -0.9505,0 -1.709,-0.3255 -2.2754,-0.9765 -0.5599,-0.6511 -0.8398,-1.5267 -0.8398,-2.627 0,-1.0937 0.2799,-1.96286 0.8398,-2.60739 0.5664,-0.65104 1.3249,-0.97656 2.2754,-0.97656 0.957,0 1.7155,0.32552 2.2754,0.97656 0.5599,0.64453 0.8398,1.51369 0.8398,2.60739 z m -3.9648,1.5235 c 0.2083,0.3711 0.4915,0.5566 0.8496,0.5566 0.3581,0 0.6413,-0.1855 0.8496,-0.5566 0.2083,-0.3711 0.3125,-0.8789 0.3125,-1.5235 0,-0.651 -0.1009,-1.1556 -0.3027,-1.5136 -0.2019,-0.36462 -0.4883,-0.54692 -0.8594,-0.54692 -0.3581,0 -0.6413,0.18555 -0.8496,0.55662 -0.2018,0.3646 -0.3027,0.8659 -0.3027,1.5039 0,0.6381 0.1009,1.1459 0.3027,1.5235 z M 30.9258,4.17969 c 0,1.10026 -0.2832,1.97591 -0.8496,2.62695 C 29.5163,7.45768 28.7611,7.7832 27.8105,7.7832 26.86,7.7832 26.1016,7.45768 25.5352,6.80664 24.9753,6.1556 24.6953,5.27995 24.6953,4.17969 c 0,-1.09375 0.28,-1.96289 0.8399,-2.60742 0.5664,-0.651046 1.3248,-0.976567 2.2753,-0.976567 0.9571,0 1.7155,0.325521 2.2754,0.976567 0.5599,0.64453 0.8399,1.51367 0.8399,2.60742 z m -3.9649,1.52343 c 0.2084,0.3711 0.4916,0.55665 0.8496,0.55665 0.3581,0 0.6413,-0.18555 0.8497,-0.55665 0.2083,-0.37109 0.3125,-0.8789 0.3125,-1.52343 0,-0.65104 -0.101,-1.1556 -0.3028,-1.51367 -0.2018,-0.36459 -0.4883,-0.54688 -0.8594,-0.54688 -0.358,0 -0.6412,0.18555 -0.8496,0.55664 -0.2018,0.36458 -0.3027,0.86589 -0.3027,1.50391 0,0.63802 0.1009,1.14583 0.3027,1.52343 z M 27.8496,15 h -2.207 L 35.9355,0.908203 h 2.1973 z"
         fill="#1e2127"
         id="path91" />
    </g>
  </g>
</svg>
