<?xml version="1.0" encoding="UTF-8" standalone="no"?>
<svg
   xmlns:dc="http://purl.org/dc/elements/1.1/"
   xmlns:cc="http://creativecommons.org/ns#"
   xmlns:rdf="http://www.w3.org/1999/02/22-rdf-syntax-ns#"
   xmlns:svg="http://www.w3.org/2000/svg"
   xmlns="http://www.w3.org/2000/svg"
   xmlns:sodipodi="http://sodipodi.sourceforge.net/DTD/sodipodi-0.dtd"
   xmlns:inkscape="http://www.inkscape.org/namespaces/inkscape"
   width="50"
   height="50"
   viewBox="0 0 13.229166 13.229167"
   version="1.1"
   id="svg8"
   inkscape:version="1.0.1 (3bc2e813f5, 2020-09-07)"
   sodipodi:docname="heart.svg">
  <defs
     id="defs2" />
  <sodipodi:namedview
     id="base"
     pagecolor="#ffffff"
     bordercolor="#666666"
     borderopacity="1.0"
     inkscape:pageopacity="0.0"
     inkscape:pageshadow="2"
     inkscape:zoom="7.9195959"
     inkscape:cx="3.9744511"
     inkscape:cy="30.375883"
     inkscape:document-units="mm"
     inkscape:current-layer="layer1"
     inkscape:document-rotation="0"
     showgrid="false"
     units="px"
     inkscape:window-width="1500"
     inkscape:window-height="1041"
     inkscape:window-x="361"
     inkscape:window-y="15"
     inkscape:window-maximized="0" />
  <metadata
     id="metadata5">
    <rdf:RDF>
      <cc:Work
         rdf:about="">
        <dc:format>image/svg+xml</dc:format>
        <dc:type
           rdf:resource="http://purl.org/dc/dcmitype/StillImage" />
        <dc:title></dc:title>
      </cc:Work>
    </rdf:RDF>
  </metadata>
  <g
     inkscape:label="Слой 1"
     inkscape:groupmode="layer"
     id="layer1">
    <g
       style="fill:none"
       id="g21"
       transform="scale(0.26458333)">
      <rect
         width="50"
         height="50"
         rx="10"
         fill="#8cc6ff"
         id="rect10"
         x="0"
         y="0" />
    </g>
    <g
       style="fill:none"
       id="g47"
       transform="matrix(0.26458333,0,0,0.26458333,3.2421549,3.3572386)">
      <path
         d="m 18.625,0.75 c 3.7975,0 6.875,3.125 6.875,7.5 C 25.5,17 16.125,22 13,23.875 10.5275,22.3913 4.145,18.9538 1.585,13.25 h 5.8725 l 1.1675,-1.945 3.75,6.25 2.5825,-4.305 H 19.25 v -2.5 H 13.5425 L 12.375,12.695 8.625,6.445 6.0425,10.75 h -5.28 C 0.5925,9.95375 0.5,9.12 0.5,8.25 0.5,3.875 3.625,0.75 7.375,0.75 9.7,0.75 11.75,2 13,3.25 14.25,2 16.3,0.75 18.625,0.75 Z"
         fill="#ffffff"
         id="path36" />
    </g>
  </g>
</svg>
